<svg width="80" height="34" viewBox="0 0 80 34" fill="none" xmlns="http://www.w3.org/2000/svg">
<path fill-rule="evenodd" clip-rule="evenodd" d="M16.9539 0C20.8746 0 24.4758 1.33031 27.3477 3.54406C26.5421 3.33437 25.6565 3.22094 24.7015 3.22094C18.5339 3.22094 15.3008 7.8925 16.3774 13.7775H20.6836C20.312 8.70031 22.3574 7.48687 24.4758 7.48687C27.1533 7.48687 27.7471 9.43937 27.7471 10.9828C27.7471 15.1422 23.2152 19.4459 15.8183 25.8088L15.8565 29.3769H28.1326C25.146 31.9756 21.2427 33.5638 16.9539 33.5638C7.59138 33.5638 0 26.0494 0 16.7819C0 7.51438 7.58791 0 16.9539 0ZM32.8207 10.9209C33.5084 12.7497 33.9042 14.7159 33.9042 16.7819C33.9042 19.635 33.1819 22.3162 31.9109 24.6675H22.8401C23.1326 24.4191 23.4416 24.1604 23.7627 23.8916C27.4227 20.8278 32.6547 16.4482 32.8207 10.9209ZM57.3106 27.9159H61.3528V4.16961H57.3106V27.9159ZM73.097 14.0123C76.0746 15.0934 79.557 16.3578 79.4596 21.6768C79.3902 25.5784 76.6467 28.2252 71.8127 28.2287C66.0896 28.2287 63.9296 24.7671 64.3741 19.9168H68.3504C68.01 23.5812 69.7221 24.8015 71.8474 24.8015C73.6636 24.8015 75.275 23.8149 75.3444 21.6115C75.419 19.2491 73.3835 18.4807 71.0864 17.6136C68.1391 16.501 64.7612 15.2259 64.8568 10.2127C64.9263 5.8368 68.2497 3.86711 72.2954 3.86711C78.8067 3.86711 79.4943 8.78617 79.3902 11.6702H75.4486C75.4833 8.48024 74.2505 7.25992 72.1599 7.25992C70.2048 7.25992 69.0067 8.44586 68.972 10.278C68.9274 12.4984 70.8711 13.2041 73.097 14.0123ZM53.6399 11.598H49.6289C49.6289 8.34273 48.1217 7.25648 45.9652 7.25648C43.8746 7.25648 41.9889 8.64524 41.9889 12.6843V19.4734C41.9889 25.238 46.618 24.9012 49.1531 24.0521V19.4734H45.795V15.7059H53.3343V26.0871C51.7924 27.7509 48.4655 28.2596 46.1701 28.2596C42.3327 28.2596 37.773 26.833 37.773 20.319C37.773 18.6426 37.7587 16.3095 37.7485 14.6375C37.7427 13.7038 37.7383 12.9762 37.7383 12.6843C37.7383 6.67899 41.2666 3.79492 46.1353 3.79492C52.7509 3.79492 53.7753 8.57992 53.6399 11.598Z" fill="#A1C611"/>
</svg>
