<svg width="100" height="29" viewBox="0 0 100 29" fill="none" xmlns="http://www.w3.org/2000/svg">
<path fill-rule="evenodd" clip-rule="evenodd" d="M6.91109 9.27767C6.37052 8.57991 5.05769 7.62372 5.90717 6.27988C6.57645 5.22031 8.17244 5.42706 9.58823 5.40121V22.3543L15.3801 22.2251L15.4059 14.9632H23.8492L23.8234 9.66532H15.3801L15.3544 5.47874C17.2078 5.42706 23.7977 5.50458 26.2946 5.53043L26.3204 0.206754C8.73875 0.232597 6.57645 -0.23258 4.20821 0.775301C-2.02129 3.41129 -1.12033 12.6631 5.4953 14.0586L6.91109 9.27767Z" fill="#2E6AE4"/>
<path fill-rule="evenodd" clip-rule="evenodd" d="M59.7072 22.0958C59.7072 19.7182 59.7072 17.3407 59.7072 14.989C59.7072 12.7665 59.6557 10.1822 62.1269 10.1822C64.4694 10.208 64.1348 13.1024 64.1348 15.2215C64.1348 17.5216 64.0833 19.8733 64.1605 22.1733H69.695C69.7722 19.7958 69.7207 17.3665 69.7207 14.989C69.7207 12.8698 69.6178 10.3631 71.8573 10.208C74.4315 10.0529 73.9681 12.999 73.9681 15.2215C73.9681 17.5216 73.9166 19.8733 73.9939 22.1733L79.6056 22.0958C79.5541 14.4204 81.4847 5.37534 73.7364 5.32365C71.0593 5.29781 70.3643 6.25401 69.1287 7.54616L68.6911 7.95965C67.9703 6.22816 66.606 5.22028 64.0576 5.29781C61.4834 5.40118 60.6854 6.38322 59.6043 7.83043L59.5528 5.73714L54.0955 5.7113V22.1992L59.7072 22.0958Z" fill="#2E6AE4"/>
<path fill-rule="evenodd" clip-rule="evenodd" d="M88.9241 10.208C93.6606 7.77875 95.0249 16.2553 91.4725 17.8317C87.1737 19.7441 85.1915 12.1204 88.9241 10.208ZM87.2766 20.6486C88.5895 21.2947 88.5895 22.1733 91.0607 22.5093C101.949 23.9824 101.718 3.38543 90.6746 5.42703C88.2033 5.86637 87.6113 7.0293 87.2766 7.39111C87.2509 7.33942 87.1479 7.46864 87.0964 7.52032C87.0707 5.24613 87.843 5.73715 81.6907 5.76299L81.7936 28.5307H87.2509L87.2766 20.6486Z" fill="#2E6AE4"/>
<path fill-rule="evenodd" clip-rule="evenodd" d="M41.5593 17.7025C41.3791 14.5238 43.6444 14.989 46.373 14.989C46.4502 18.4519 43.2583 19.8733 41.5593 17.7025ZM41.7652 10.8024C42.5117 9.79449 42.2286 8.81246 44.3652 8.91583C46.1156 8.99336 46.27 10.0788 46.3473 11.6552C43.7216 11.5777 40.7356 11.4485 38.7277 12.6372C37.1317 13.5934 35.7159 15.4541 36.1536 18.1935C36.9258 23.052 43.8761 24.2149 46.5532 20.6744C46.6819 21.0104 46.6819 21.3722 46.7591 21.5531C47.0423 22.1992 46.5789 21.8115 47.1967 22.1216H51.753C51.8045 19.0205 51.753 15.8935 51.7788 12.7923C51.7788 9.5619 51.0323 7.59783 48.8442 6.40905C44.6226 4.08317 36.5912 5.63376 36.9258 10.7765L41.7652 10.8024Z" fill="#2E6AE4"/>
<path fill-rule="evenodd" clip-rule="evenodd" d="M28.2505 22.1734H34.1969V0H28.2248L28.2505 22.1734Z" fill="#2E6AE4"/>
</svg>
