<?xml version="1.0" encoding="UTF-8"?>
<svg width="141px" height="29px" viewBox="0 0 141 29" version="1.1" xmlns="http://www.w3.org/2000/svg" xmlns:xlink="http://www.w3.org/1999/xlink">
    <!-- Generator: Sketch 47 (45396) - http://www.bohemiancoding.com/sketch -->
    <title>Untitled</title>
    <desc>Created with Sketch.</desc>
    <defs></defs>
    <g id="Page-1" stroke="none" stroke-width="1" fill="none" fill-rule="evenodd">
        <g id="Google_Maps_Logo" fill-rule="nonzero">
            <path d="M5.19584906,20.429434 C5.97303522,21.4198387 6.68037805,22.463112 7.31275472,23.5516981 C7.85267925,24.5755472 8.07773585,25.2697358 8.47237736,26.5033208 C8.71433962,27.1848302 8.9330566,27.3882264 9.40324528,27.3882264 C9.91569811,27.3882264 10.1481509,27.0421887 10.3277736,26.5070189 C10.7007547,25.3421132 10.993434,24.4529811 11.4551698,23.6129811 C12.3612075,21.9910943 13.4870189,20.5498868 14.593283,19.1646792 C14.8928302,18.7726792 16.8290566,16.4888302 17.7007547,14.6867925 C17.7007547,14.6867925 18.7721509,12.7072453 18.7721509,9.94264151 C18.7721509,7.35660377 17.7155472,5.56301887 17.7155472,5.56301887 L14.6735849,6.37766038 L12.8261132,11.2433208 L12.3691321,11.9142642 L12.2777358,12.0357736 L12.1562264,12.1879245 L11.9427925,12.4309434 L11.6379623,12.7357736 L9.99283019,14.0760755 L5.88,16.4507925 L5.19584906,20.429434 Z" id="Shape" fill="#34A853"></path>
            <path d="M0.950943396,14.3539623 C1.95471698,16.6467925 3.89041509,18.6622642 5.20007547,20.4310189 L12.1562264,12.1910943 C12.1562264,12.1910943 11.1762264,13.4727547 9.39849057,13.4727547 C7.41841509,13.4727547 5.81871698,11.8915472 5.81871698,9.89773585 C5.81871698,8.53049057 6.64128302,7.59116981 6.64128302,7.59116981 L1.91932075,8.85645283 L0.950943396,14.3539623 Z" id="Shape" fill="#FBBC04"></path>
            <path d="M12.2338868,0.946716981 C14.5441509,1.69162264 16.5215849,3.25539623 17.7176604,5.56143396 L12.1583396,12.1863396 C12.1583396,12.1863396 12.9809057,11.2301132 12.9809057,9.87132075 C12.9809057,7.83101887 11.2628679,6.30686792 9.4069434,6.30686792 C7.65192453,6.30686792 6.64392453,7.58641509 6.64392453,7.58641509 L6.64392453,3.41283019 L12.2338868,0.946716981 Z" id="Shape" fill="#4285F4"></path>
            <path d="M2.22520755,3.87403774 C3.60513208,2.22309434 6.03320755,0.523018868 9.3805283,0.523018868 C11.0045283,0.523018868 12.2280755,0.949358491 12.2280755,0.949358491 L6.63864151,7.59011321 L2.67849057,7.59011321 L2.22520755,3.87403774 Z" id="Shape" fill="#1A73E8"></path>
            <path d="M0.950943396,14.3539623 C0.950943396,14.3539623 0.0274716981,12.5455849 0.0274716981,9.92573585 C0.0274716981,7.44958491 0.990037736,5.28513208 2.22520755,3.87403774 L6.64181132,7.59064151 L0.950943396,14.3539623 Z" id="Shape" fill="#EA4335"></path>
            <g id="Group" transform="translate(26.415094, 6.339623)" fill="#767676">
                <path d="M69.5667925,15.9732075 L69.5667925,1.85328302 L71.3809811,1.85328302 L76.2915472,10.4513962 L76.3707925,10.4513962 L81.2813585,1.85328302 L83.0955472,1.85328302 L83.0955472,15.9732075 L81.2813585,15.9732075 L81.2813585,7.59169811 L81.3606038,5.22490566 L81.2813585,5.22490566 L76.8647547,12.9750943 L75.8002264,12.9750943 L71.3836226,5.22490566 L71.3043774,5.22490566 L71.3836226,7.59169811 L71.3836226,15.9726792 L69.5667925,15.9732075 Z M88.3996981,16.2690566 C87.3747925,16.2690566 86.5163019,15.9732075 85.8268679,15.3815094 C85.137434,14.7898113 84.7913962,14.0079245 84.7913962,13.0347925 C84.7913962,11.9781887 85.1981887,11.1582642 86.0138868,10.5596981 C86.8295849,9.96113208 87.8344151,9.66264151 89.0252075,9.66264151 C90.0902642,9.66264151 90.9640755,9.85969811 91.6482264,10.2543396 L91.6482264,9.97803774 C91.6482264,9.268 91.4052075,8.69954717 90.9191698,8.27267925 C90.4331321,7.84581132 89.834566,7.63184906 89.124,7.63184906 C88.5983396,7.63184906 88.1223396,7.7565283 87.6949434,8.00166038 C87.2675472,8.24679245 86.9753962,8.59335849 86.8179623,9.02656604 L85.1612075,8.3170566 C85.3846792,7.73856604 85.825283,7.20762264 86.4819623,6.70996226 C87.1386415,6.21230189 88.0066415,5.97033962 89.0849057,5.97033962 C90.3211321,5.97033962 91.3460377,6.33222642 92.1612075,7.0549434 C92.9763774,7.77766038 93.3836981,8.79728302 93.3836981,10.1122264 L93.3836981,15.954717 L91.6487547,15.954717 L91.6487547,14.6128302 L91.5695094,14.6128302 C90.8457358,15.7222642 89.7875472,16.2690566 88.3996981,16.2690566 Z M88.6955472,14.6128302 C89.4446792,14.6128302 90.1246038,14.3328302 90.7363774,13.7749434 C91.3481509,13.2170566 91.6535094,12.5598491 91.6535094,11.7938113 C91.1410566,11.3727547 90.3718491,11.1624906 89.3464151,11.1624906 C88.4652075,11.1624906 87.8011321,11.3526792 87.354717,11.7346415 C86.9083019,12.1166038 86.6837736,12.5630189 86.6837736,13.0754717 C86.6837736,13.5488302 86.8876981,13.9233962 87.2950189,14.1996981 C87.7023396,14.476 88.1693585,14.6138868 88.6950189,14.6138868 L88.6955472,14.6128302 Z M100.181887,16.2690566 C99.4459623,16.2690566 98.7850566,16.110566 98.2007547,15.7956981 C97.6164528,15.4808302 97.1784906,15.0856604 96.890566,14.6123019 L96.8113208,14.6123019 L96.890566,15.9531321 L96.890566,20.2128302 L95.0763774,20.2128302 L95.0763774,6.29101887 L96.8123774,6.29101887 L96.8123774,7.63184906 L96.8916226,7.63184906 C97.1806038,7.15849057 97.6175094,6.76437736 98.2018113,6.44845283 C98.7861132,6.1325283 99.4475472,5.97509434 100.182943,5.97509434 C101.431849,5.97509434 102.510113,6.468 103.417208,7.45433962 C104.324302,8.44067925 104.778113,9.66264151 104.778113,11.1223396 C104.778113,12.5820377 104.323774,13.8045283 103.417208,14.7903396 C102.510642,15.7761509 101.431849,16.2695849 100.182943,16.2695849 L100.181887,16.2690566 Z M99.8860377,14.6128302 C100.727623,14.6128302 101.449811,14.2937358 102.055245,13.6618868 C102.660679,13.0300377 102.96234,12.1794717 102.96234,11.1276226 C102.96234,10.0757736 102.660151,9.22573585 102.055245,8.59335849 C101.45034,7.96098113 100.727094,7.64241509 99.8860377,7.64241509 C99.0317736,7.64241509 98.3048302,7.95781132 97.7067925,8.58913208 C97.1087547,9.22045283 96.8102642,10.0683774 96.8102642,11.1329057 C96.8102642,12.197434 97.109283,13.0453585 97.7067925,13.6766792 C98.3043019,14.308 99.0312453,14.6233962 99.8860377,14.6233962 L99.8860377,14.6128302 Z M109.598868,16.2690566 C108.521132,16.2690566 107.630415,16.0059623 106.926717,15.4803019 C106.223019,14.9546415 105.711623,14.2969057 105.378792,13.5081509 L106.995396,12.8372075 C107.507849,14.0523019 108.382717,14.6508679 109.618943,14.6508679 C110.184226,14.6508679 110.648075,14.5261887 111.009434,14.2810566 C111.370792,14.0359245 111.552,13.702566 111.552,13.2952453 C111.552,12.6644528 111.111396,12.2365283 110.230189,12.0135849 L108.278113,11.5407547 C107.66,11.3833208 107.07517,11.0837736 106.523094,10.6436981 C105.971019,10.2036226 105.694717,9.60822642 105.694717,8.85962264 C105.694717,8.00535849 106.072453,7.31169811 106.828453,6.77811321 C107.584453,6.2445283 108.482038,5.97932075 109.520151,5.97932075 C110.374415,5.97932075 111.136755,6.17320755 111.807698,6.56045283 C112.465207,6.93343299 112.973742,7.52202793 113.247321,8.22671698 L111.669283,8.87758491 C111.315321,8.02332075 110.57834,7.59592453 109.460981,7.59592453 C108.922113,7.59592453 108.467774,7.70792453 108.100604,7.93086792 C107.733434,8.15381132 107.548528,8.4570566 107.548528,8.83849057 C107.548528,9.39056604 107.97117,9.76513208 108.830189,9.96271698 L110.742642,10.416 C111.649736,10.6262642 112.320151,10.9881509 112.753887,11.5006038 C113.187623,12.0130566 113.404755,12.5920755 113.404755,13.2366038 C113.404755,14.1040755 113.049736,14.8215094 112.339698,15.4058113 C111.62966,15.9901132 110.716226,16.273283 109.592528,16.273283 L109.598868,16.2690566 Z M15.8046792,7.55471698 L8.36301887,7.55471698 L8.36301887,9.76301887 L13.6460377,9.76301887 C13.3855849,12.8588679 10.8090566,14.1796226 8.37728302,14.1796226 C6.82070067,14.1867108 5.32658191,13.5679015 4.23082947,12.4623132 C3.13507703,11.3567249 2.5296439,9.85713611 2.55064151,8.30067925 C2.55064151,4.95811321 5.13826415,2.38369811 8.38309434,2.38369811 C10.8872453,2.38369811 12.3612075,3.98022642 12.3612075,3.98022642 L13.9075472,2.3794717 C13.9075472,2.3794717 11.922717,0.171169811 8.30384906,0.171169811 C3.6954717,0.171169811 0.129433962,4.0610566 0.129433962,8.26264151 C0.129433962,12.3791698 3.48415094,16.3947925 8.42166038,16.3947925 C12.7643019,16.3947925 15.9446792,13.4193962 15.9446792,9.01969811 C15.9446792,8.092 15.8099623,7.55524528 15.8099623,7.55524528 L15.8046792,7.55471698 Z" id="Shape"></path>
                <path d="M21.9139623,5.98407547 C18.8603774,5.98407547 16.6721509,8.3709434 16.6721509,11.1550943 C16.6721509,13.9804528 18.7948679,16.4116981 21.9551698,16.4116981 C24.8116981,16.4116981 27.1515472,14.2287547 27.1515472,11.2153208 C27.1515472,7.76181132 24.4292075,5.98301887 21.9192453,5.98301887 L21.9139623,5.98407547 Z M21.9440755,8.03230189 C23.4460377,8.03230189 24.8687547,9.24633962 24.8687547,11.2021132 C24.8687547,13.1166792 23.4513208,14.3666415 21.9366792,14.3666415 C20.2725283,14.3666415 18.9596981,13.0337358 18.9596981,11.1878491 C18.9596981,9.38211321 20.2566792,8.03283019 21.9435472,8.03283019 L21.9440755,8.03230189 Z" id="B"></path>
                <g id="B-link" transform="translate(27.723170, 5.811321)">
                    <path d="M5.53660377,0.172754717 C2.48301887,0.172754717 0.294792453,2.55962264 0.294792453,5.34377358 C0.294792453,8.16913208 2.41750943,10.6003774 5.57781132,10.6003774 C8.43433962,10.6003774 10.7741887,8.41743396 10.7741887,5.404 C10.7741887,1.95049057 8.05184906,0.171698113 5.54188679,0.171698113 L5.53660377,0.172754717 Z M5.56671698,2.22098113 C7.06867925,2.22098113 8.49139623,3.43501887 8.49139623,5.39079245 C8.49139623,7.30535849 7.07396226,8.55532075 5.55932075,8.55532075 C3.89516981,8.55532075 2.58233962,7.22241509 2.58233962,5.3765283 C2.58233962,3.57079245 3.87932075,2.22150943 5.56618868,2.22150943 L5.56671698,2.22098113 Z" id="B"></path>
                </g>
                <path d="M44.4312453,5.98407547 C41.6286038,5.98407547 39.4250566,8.43909434 39.4250566,11.1941887 C39.4250566,14.3323019 41.9788679,16.4138113 44.3821132,16.4138113 C45.8682264,16.4138113 46.6580377,15.8236981 47.2423396,15.1458868 L47.2423396,16.1739623 C47.2423396,17.9728302 46.1498113,19.050566 44.4951698,19.050566 C42.9023396,19.050566 42.1040755,17.8661132 41.8261887,17.1941132 L39.8223396,18.032 C40.533434,19.5350189 41.9640755,21.1030189 44.5126038,21.1030189 C47.2993962,21.1030189 49.4236981,19.348 49.4236981,15.6615094 L49.4236981,6.29471698 L47.2375849,6.29471698 L47.2375849,7.17803774 C46.5655849,6.45426415 45.6463396,5.98143396 44.4270189,5.98143396 L44.4312453,5.98407547 Z M44.6341132,8.02860377 C46.0087547,8.02860377 47.4193208,9.20143396 47.4193208,11.205283 C47.4193208,13.2424151 46.0113962,14.3645283 44.6034717,14.3645283 C43.109434,14.3645283 41.7189434,13.1515472 41.7189434,11.2243019 C41.7189434,9.21675472 43.1622642,8.02807547 44.6341132,8.02807547 L44.6341132,8.02860377 Z M59.1803774,5.98407547 C56.5367547,5.98407547 54.3163019,8.08671698 54.3163019,11.1915472 C54.3163019,14.4754717 56.7903396,16.4238491 59.4339623,16.4238491 C61.6401509,16.4238491 62.994717,15.2166792 63.8019623,14.1352453 L62.0057358,12.936 C61.5381887,13.6618868 60.7557736,14.3719245 59.4513962,14.3719245 C57.9853585,14.3719245 57.3117736,13.5689057 56.8944151,12.7912453 L63.8859623,9.88558491 L63.5230189,9.04030189 C62.8467925,7.37509434 61.2713962,5.98460377 59.1909434,5.98460377 L59.1803774,5.98407547 Z M59.2712453,7.98950943 C60.2243019,7.98950943 60.9089811,8.49667925 61.2011321,9.10316981 L56.532,11.054717 C56.3312453,9.54377358 57.7618868,7.98950943 59.2717736,7.98950943 L59.2712453,7.98950943 Z M50.9769057,16.1132075 L53.2729057,16.1132075 L53.2729057,0.739622642 L50.9769057,0.739622642 L50.9769057,16.1132075 Z" id="Shape"></path>
            </g>
        </g>
    </g>
</svg>