<svg width="118" height="170" viewBox="0 0 118 170" fill="none" xmlns="http://www.w3.org/2000/svg">
<path d="M35.7161 104.493C28.7022 104.493 22.9816 98.6706 22.9816 91.5323C22.9816 84.3941 28.7022 78.572 35.7161 78.572C42.7301 78.572 48.4507 84.3941 48.4507 91.5323C48.4507 98.6706 42.7301 104.493 35.7161 104.493ZM35.7161 80.9008C29.9956 80.9008 25.3196 85.6597 25.3196 91.4817C25.3196 97.3037 29.9956 102.063 35.7161 102.063C41.4367 102.063 46.1127 97.3037 46.1127 91.4817C46.1127 85.6597 41.4367 80.9008 35.7161 80.9008Z" fill="black"/>
<path d="M82.0284 25.9206C75.0145 25.9206 69.2939 20.0986 69.2939 12.9603C69.2939 5.822 75.0145 0 82.0284 0C89.0424 0 94.763 5.822 94.763 12.9603C94.8127 20.0986 89.0921 25.9206 82.0284 25.9206ZM82.0284 2.3288C76.3079 2.3288 71.6319 7.08766 71.6319 12.9097C71.6319 18.7317 76.3079 23.4905 82.0284 23.4905C87.749 23.4905 92.425 18.7317 92.425 12.9097C92.4747 7.08766 87.7988 2.3288 82.0284 2.3288Z" fill="black"/>
<path d="M55.7634 104.492H53.7239L54.7188 102.721C56.6588 99.3286 57.6537 95.481 57.6537 91.5322C57.6537 84.8495 54.7685 78.6225 49.7443 74.3192L31.0405 58.6251C23.2307 52.145 18.9527 43.5891 18.9527 34.5777C18.9527 15.4916 38.2534 0 61.9317 0H63.9712L62.9763 1.77192C61.0363 5.16387 60.0414 9.01146 60.0414 12.9603C60.0414 19.6936 62.9763 26.0219 68.1 30.2745L86.6545 45.8673C94.4644 52.3475 98.7424 60.9033 98.7424 69.9148C98.7424 89.0008 79.4914 104.492 55.7634 104.492ZM60.0414 2.37943C38.5021 3.18945 21.3404 17.3142 21.3404 34.5271C21.3404 42.8298 25.3199 50.7274 32.5826 56.752L51.2864 72.4967C56.8578 77.2049 60.0414 84.1407 60.0414 91.5322C60.0414 95.1772 59.2455 98.8223 57.7034 102.113C79.1929 101.303 96.4044 87.1783 96.4044 69.9654C96.4044 61.6627 92.4249 53.765 85.1622 47.7405L66.6076 32.097C60.9368 27.3888 57.7034 20.4023 57.7034 12.9603C57.7034 9.26459 58.4993 5.67013 60.0414 2.37943Z" fill="black"/>
<path d="M11.7396 140.741C11.2919 140.184 10.7448 139.779 10.0483 139.475C9.35192 139.171 8.60575 138.918 7.7601 138.665C6.91445 138.412 6.0688 138.159 5.22315 137.855C4.37749 137.551 3.63133 137.197 2.93491 136.792C2.23849 136.387 1.6913 135.779 1.24361 135.02C0.795908 134.261 0.596929 133.299 0.596929 132.236C0.596929 130.565 1.2436 129.147 2.53695 127.983C3.8303 126.819 5.52161 126.211 7.61086 126.211C8.40677 126.211 9.15294 126.312 9.84935 126.515C10.5458 126.717 11.1427 126.97 11.6402 127.224C12.1376 127.477 12.5356 127.78 12.9335 128.034C13.3315 128.287 13.5802 128.54 13.7294 128.742L13.9781 129.046L12.4361 130.616C12.3863 130.565 12.3366 130.464 12.2371 130.362C12.1376 130.261 11.9386 130.109 11.6402 129.856C11.3417 129.603 10.9935 129.4 10.695 129.198C10.3468 128.995 9.8991 128.793 9.35191 128.641C8.80473 128.489 8.2078 128.388 7.61086 128.388C6.16828 128.388 5.02417 128.742 4.17851 129.502C3.33286 130.261 2.88516 131.122 2.88516 132.185C2.88516 132.944 3.08414 133.602 3.53184 134.159C3.97954 134.716 4.52673 135.121 5.22315 135.425C5.91957 135.729 6.71547 135.982 7.51138 136.235C8.35703 136.488 9.20268 136.741 10.0483 137.045C10.894 137.349 11.6401 137.703 12.3366 138.108C13.033 138.513 13.5802 139.121 14.0279 139.88C14.4756 140.64 14.6746 141.551 14.6746 142.665C14.6746 144.538 14.0279 146.057 12.7345 147.221C11.4412 148.385 9.65038 148.993 7.36214 148.993C6.417 148.993 5.52161 148.892 4.67596 148.638C3.8303 148.385 3.13389 148.132 2.5867 147.828C2.03951 147.525 1.59181 147.17 1.14411 146.867C0.746158 146.512 0.447694 146.259 0.298461 146.006L0 145.652L1.44258 144.031C1.49232 144.082 1.54207 144.183 1.64155 144.335C1.74104 144.487 1.98977 144.69 2.33798 144.993C2.68619 145.297 3.08414 145.601 3.4821 145.803C3.88005 146.057 4.42723 146.259 5.12365 146.462C5.82007 146.664 6.56624 146.765 7.26266 146.765C8.85447 146.765 10.0981 146.411 10.9437 145.652C11.7894 144.892 12.2371 143.88 12.2371 142.665C12.3863 141.905 12.1376 141.298 11.7396 140.741Z" fill="black"/>
<path d="M40.4918 144.842C41.7851 143.525 42.4318 141.905 42.4318 140.032V126.565H44.7698V140.032C44.7698 142.513 43.8744 144.588 42.1333 146.411C40.3923 148.183 38.303 149.094 35.8656 149.094C33.4778 149.094 31.3886 148.183 29.5978 146.411C27.8567 144.639 26.9613 142.513 26.9613 140.083V126.616H29.2993V140.083C29.2993 142.007 29.946 143.576 31.2393 144.892C32.5327 146.208 34.0748 146.867 35.8656 146.867C37.7061 146.816 39.2482 146.158 40.4918 144.842Z" fill="black"/>
<path d="M68.5474 140.741C68.0997 140.184 67.5525 139.779 66.8561 139.475C66.1597 139.171 65.4135 138.918 64.5678 138.665C63.7222 138.412 62.8765 138.159 62.0309 137.855C61.1852 137.551 60.4391 137.197 59.7427 136.792C59.0462 136.387 58.499 135.779 58.0513 135.02C57.6036 134.261 57.4047 133.299 57.4047 132.236C57.4047 130.565 58.0513 129.147 59.3447 127.983C60.6381 126.819 62.3294 126.211 64.4186 126.211C65.2145 126.211 65.9607 126.312 66.6571 126.515C67.3535 126.717 67.9505 126.97 68.4479 127.224C68.9454 127.477 69.3433 127.78 69.7413 128.034C70.1392 128.287 70.3879 128.54 70.5372 128.742L70.7859 129.046L69.2438 130.616C69.1941 130.565 69.1443 130.464 69.0448 130.362C68.9453 130.261 68.7961 130.109 68.4479 129.856C68.1494 129.603 67.8012 129.401 67.5028 129.198C67.1545 128.996 66.7069 128.793 66.1597 128.641C65.6125 128.489 65.0156 128.388 64.4186 128.388C62.976 128.388 61.8319 128.742 60.9863 129.502C60.1406 130.261 59.6929 131.122 59.6929 132.185C59.6929 132.944 59.8919 133.602 60.3396 134.159C60.7873 134.716 61.3345 135.121 62.0309 135.425C62.7273 135.729 63.5232 135.982 64.3191 136.235C65.1648 136.488 66.0104 136.741 66.8561 137.045C67.7017 137.349 68.4479 137.703 69.1443 138.108C69.8407 138.513 70.3879 139.121 70.8356 139.88C71.2833 140.64 71.4823 141.551 71.4823 142.665C71.4823 144.538 70.8356 146.057 69.5423 147.221C68.2489 148.385 66.4581 148.993 64.1699 148.993C63.2248 148.993 62.3294 148.892 61.4837 148.638C60.6381 148.385 59.9416 148.132 59.3944 147.828C58.8473 147.525 58.3996 147.17 57.9519 146.867C57.5539 146.512 57.2554 146.259 57.1062 146.006L56.8077 145.652L58.2503 144.031C58.3001 144.082 58.3498 144.183 58.4493 144.335C58.5488 144.487 58.7975 144.69 59.1457 144.993C59.4939 145.297 59.8919 145.601 60.2898 145.803C60.6878 146.057 61.235 146.259 61.9314 146.462C62.6278 146.664 63.374 146.765 64.0704 146.765C65.6622 146.765 66.9058 146.411 67.7515 145.652C68.5971 144.892 69.0448 143.88 69.0448 142.665C69.2438 141.905 68.9951 141.298 68.5474 140.741Z" fill="black"/>
<path d="M84.1674 126.515H86.5053V136.337H98.6429V126.515H100.981V148.689H98.6429V138.564H86.5053V148.689H84.1674V126.515Z" fill="black"/>
<path d="M115.357 126.515H117.695V148.689H115.357V126.515Z" fill="black"/>
<path d="M17.8082 165.446C17.46 165.244 17.062 165.041 16.5646 164.94C16.0671 164.788 15.5697 164.636 15.122 164.434C14.6246 164.231 14.2266 163.928 13.8784 163.472C13.5302 163.016 13.381 162.459 13.381 161.801C13.381 160.991 13.7292 160.283 14.3758 159.675C15.0225 159.067 15.8682 158.814 16.9128 158.814C17.3108 158.814 17.7087 158.865 18.1067 158.966C18.5046 159.067 18.8031 159.169 19.0518 159.321C19.3005 159.472 19.4995 159.574 19.6985 159.726C19.8975 159.877 19.997 159.979 20.0964 160.08L20.2457 160.232L18.8528 161.599C18.8031 161.548 18.7036 161.447 18.6041 161.346C18.5046 161.244 18.3056 161.143 17.9574 160.941C17.659 160.789 17.3108 160.688 16.9625 160.688C16.5646 160.688 16.2164 160.789 15.9677 160.991C15.7189 161.194 15.5697 161.447 15.5697 161.751C15.5697 162.105 15.7189 162.358 16.0671 162.561C16.4154 162.763 16.8133 162.966 17.3108 163.067C17.8082 163.219 18.2559 163.371 18.7533 163.573C19.2508 163.776 19.6487 164.079 19.997 164.535C20.3452 164.991 20.4944 165.548 20.4944 166.206C20.4944 167.168 20.1462 167.927 19.4995 168.535C18.8031 169.142 17.9077 169.446 16.7138 169.446C16.2661 169.446 15.8184 169.395 15.3707 169.294C14.923 169.193 14.5748 169.041 14.2764 168.889C13.9779 168.737 13.7292 168.585 13.5302 168.383C13.3312 168.231 13.182 168.079 13.0825 167.978L12.9333 167.775L14.2266 166.459C14.2764 166.56 14.3758 166.611 14.5251 166.763C14.6246 166.864 14.923 167.066 15.321 167.269C15.7189 167.471 16.1666 167.573 16.6143 167.573C17.1118 167.573 17.5595 167.471 17.8082 167.218C18.1067 166.965 18.2559 166.661 18.2559 166.256C18.3056 165.902 18.1067 165.649 17.8082 165.446Z" fill="black"/>
<path d="M36.5122 159.067V161.042H33.6767V169.294H31.5377V161.042H28.6526V159.067H36.5122Z" fill="black"/>
<path d="M51.336 166.813C51.7837 166.358 51.9826 165.801 51.9826 165.092V159.067H54.1216V165.092C54.1216 166.358 53.7237 167.37 52.878 168.231C52.0324 169.091 50.9878 169.496 49.7441 169.496C48.5005 169.496 47.4559 169.091 46.6102 168.231C45.7646 167.37 45.3666 166.358 45.3666 165.092V159.067H47.5057V165.092C47.5057 165.75 47.7046 166.358 48.1523 166.813C48.6 167.269 49.0975 167.522 49.7441 167.522C50.3908 167.522 50.8883 167.269 51.336 166.813Z" fill="black"/>
<path d="M67.7517 159.067C69.1942 159.067 70.4379 159.574 71.4327 160.535C72.4276 161.497 72.9251 162.712 72.9251 164.181C72.9251 165.598 72.4276 166.813 71.4327 167.775C70.4379 168.737 69.244 169.243 67.7517 169.243H64.0208V159.067H67.7517ZM66.2096 161.042V167.319H67.8014C68.6471 167.319 69.3435 167.016 69.9404 166.408C70.5373 165.801 70.8358 165.041 70.8358 164.181C70.8358 163.32 70.5373 162.561 69.9901 161.953C69.3932 161.345 68.6968 161.042 67.8512 161.042H66.2096Z" fill="black"/>
<path d="M82.326 159.067H84.465V169.243H82.326V159.067Z" fill="black"/>
<path d="M95.4587 160.384C96.5033 159.321 97.7967 158.814 99.3387 158.814C100.881 158.814 102.174 159.321 103.219 160.384C104.263 161.447 104.811 162.662 104.811 164.13C104.811 165.598 104.263 166.864 103.219 167.876C102.174 168.94 100.881 169.446 99.3387 169.446C97.7967 169.446 96.5033 168.94 95.4587 167.876C94.4141 166.813 93.8669 165.598 93.8669 164.13C93.8669 162.713 94.3643 161.447 95.4587 160.384ZM97.0008 166.56C97.6475 167.218 98.3936 167.522 99.289 167.522C100.184 167.522 100.931 167.218 101.577 166.56C102.224 165.902 102.522 165.143 102.522 164.181C102.522 163.219 102.224 162.459 101.577 161.801C100.931 161.143 100.184 160.839 99.289 160.839C98.3936 160.839 97.6475 161.143 97.0008 161.801C96.3541 162.459 96.0556 163.219 96.0556 164.181C96.1054 165.092 96.4038 165.902 97.0008 166.56Z" fill="black"/>
</svg>
