<svg width="169" height="26" viewBox="0 0 169 26" fill="none" xmlns="http://www.w3.org/2000/svg">
<g clip-path="url(#clip0)">
<path d="M5.88022 4.34837C9.07521 3.93085 18.1398 3.64324 15.6564 16.912L18.4732 16.6798C17.2393 8.50095 19.8202 4.33067 27.8907 3.93085C14.5055 -3.57774 6.88457 4.21705 5.88022 4.34837Z" fill="#FAC415"/>
<path d="M18.3412 14.8107C18.8669 16.2517 19.8027 17.5024 21.0301 18.4047C22.2574 19.3069 23.7214 19.8202 25.2367 19.8797C26.7521 19.9392 28.2509 19.5422 29.5435 18.7388C30.8361 17.9354 31.8646 16.7618 32.4988 15.3664C33.133 13.971 33.3445 12.4163 33.1066 10.8991C32.8687 9.38191 32.192 7.97024 31.1621 6.8426C30.1322 5.71496 28.7954 4.92199 27.3206 4.56398C25.8459 4.20596 24.2994 4.29896 22.8769 4.83123C20.9693 5.5457 19.42 6.99832 18.5694 8.8697C17.7189 10.7411 17.6368 12.878 18.3412 14.8107Z" fill="white"/>
<path d="M8.53521 19.8566C12.7709 19.8566 16.2047 16.3782 16.2047 12.0873C16.2047 7.7965 12.7709 4.31808 8.53521 4.31808C4.29948 4.31808 0.865738 7.7965 0.865738 12.0873C0.865738 16.3782 4.29948 19.8566 8.53521 19.8566Z" fill="white"/>
<path d="M8.42509 13.4474C9.20803 13.4474 9.84273 12.8044 9.84273 12.0113C9.84273 11.2181 9.20803 10.5752 8.42509 10.5752C7.64214 10.5752 7.00745 11.2181 7.00745 12.0113C7.00745 12.8044 7.64214 13.4474 8.42509 13.4474Z" fill="#EE6946"/>
<path d="M25.5155 13.4467C26.2981 13.4467 26.9325 12.8041 26.9325 12.0113C26.9325 11.2185 26.2981 10.5758 25.5155 10.5758C24.7329 10.5758 24.0985 11.2185 24.0985 12.0113C24.0985 12.8041 24.7329 13.4467 25.5155 13.4467Z" fill="#00AF87"/>
<path d="M32.3792 6.97121C32.7359 5.7298 33.3034 4.56085 34.0563 3.51682L28.3649 3.51239C24.9613 1.35374 21.0121 0.24317 16.9971 0.315674C12.8838 0.226414 8.83371 1.35129 5.3405 3.55317L0 3.55619C0.746049 4.59227 1.31071 5.75057 1.66932 6.98047C0.347199 8.7998 -0.217989 11.0718 0.0951114 13.3085C0.408211 15.5453 1.57463 17.5685 3.34393 18.9438C5.11322 20.319 7.34431 20.9367 9.55814 20.6641C11.772 20.3915 13.792 19.2503 15.1845 17.4858L16.9995 20.2385L18.832 17.4626C20.2159 19.2518 22.2403 20.4163 24.4661 20.7035C26.692 20.9908 28.9399 20.3777 30.7225 18.9972C32.5051 17.6167 33.6787 15.5801 33.9888 13.3289C34.2989 11.0777 33.7206 8.79335 32.3792 6.97121ZM25.2621 3.48833C23.16 3.5502 21.1553 4.39932 19.6353 5.87157C18.1153 7.34382 17.1882 9.33463 17.033 11.4591C16.8768 9.31472 15.937 7.3063 14.3973 5.8262C12.8576 4.34609 10.8284 3.5006 8.70629 3.45488C11.3328 2.34939 14.153 1.79389 16.9971 1.82184C19.8375 1.77824 22.6547 2.34627 25.2621 3.48833ZM8.53539 18.982C7.18897 18.9822 5.87275 18.5778 4.75319 17.8201C3.63364 17.0624 2.76105 15.9854 2.24577 14.7253C1.7305 13.4652 1.5957 12.0786 1.85841 10.7409C2.12112 9.40313 2.76954 8.17437 3.72167 7.20999C4.6738 6.2456 5.88687 5.58891 7.20745 5.32298C8.52803 5.05704 9.89681 5.19379 11.1407 5.71595C12.3845 6.2381 13.4476 7.1222 14.1954 8.25643C14.9432 9.39066 15.3421 10.7241 15.3418 12.088C15.3394 13.9158 14.6215 15.6681 13.3456 16.9605C12.0696 18.2529 10.3397 18.9799 8.53539 18.982ZM27.8921 18.5907C26.1982 19.2231 24.3257 19.1485 22.6861 18.3832C21.0465 17.618 19.7739 16.2246 19.1479 14.5093V14.5074C18.6821 13.2278 18.6013 11.8371 18.9157 10.511C19.2301 9.18488 19.9255 7.983 20.9142 7.0573C21.9028 6.13159 23.1403 5.52364 24.47 5.31031C25.7997 5.09698 27.162 5.28785 28.3846 5.85879C29.6073 6.42973 30.6353 7.3551 31.3388 8.51789C32.0423 9.68068 32.3897 11.0287 32.337 12.3914C32.2842 13.7542 31.8338 15.0705 31.0426 16.174C30.2515 17.2774 29.1551 18.1184 27.8921 18.5907Z" fill="black"/>
<path d="M8.43012 7.74462C7.59675 7.74338 6.78174 7.99261 6.08823 8.46075C5.39473 8.92889 4.85389 9.59491 4.53416 10.3745C4.21443 11.1541 4.13017 12.0123 4.29206 12.8405C4.45395 13.6686 4.8547 14.4295 5.4436 15.0268C6.0325 15.6242 6.78309 16.0311 7.60038 16.1962C8.41767 16.3613 9.26493 16.277 10.0349 15.9541C10.805 15.6313 11.4631 15.0843 11.9262 14.3823C12.3892 13.6804 12.6363 12.8551 12.6361 12.0109C12.6343 10.8809 12.1908 9.79771 11.4025 8.99819C10.6143 8.19867 9.54557 7.74794 8.43012 7.74462ZM8.43012 14.8088C7.88374 14.8099 7.34931 14.6468 6.89448 14.3401C6.43964 14.0333 6.08485 13.5969 5.87499 13.0858C5.66513 12.5748 5.60964 12.0121 5.71555 11.4691C5.82145 10.9261 6.08399 10.4272 6.46993 10.0354C6.85588 9.64356 7.34788 9.37655 7.88368 9.26811C8.41948 9.15967 8.975 9.21469 9.47992 9.42619C9.98485 9.63769 10.4165 9.99617 10.7202 10.4563C11.024 10.9164 11.1861 11.4574 11.1862 12.0109C11.1845 12.7514 10.8938 13.4612 10.3775 13.9854C9.86115 14.5095 9.16111 14.8055 8.43012 14.8088Z" fill="black"/>
<path d="M25.5155 7.74462C24.6823 7.74418 23.8677 7.99408 23.1747 8.46271C22.4817 8.93134 21.9415 9.59763 21.6224 10.3773C21.3032 11.157 21.2195 12.0151 21.3819 12.8429C21.5442 13.6708 21.9453 14.4313 22.5343 15.0282C23.1234 15.6252 23.874 16.0317 24.6912 16.1965C25.5084 16.3612 26.3554 16.2768 27.1252 15.9538C27.895 15.6308 28.5529 15.0837 29.0158 14.3819C29.4786 13.6801 29.7256 12.8549 29.7255 12.0109C29.724 10.8801 29.28 9.79608 28.4909 8.99636C27.7017 8.19664 26.6317 7.74651 25.5155 7.74462ZM25.5155 14.8088C24.9693 14.809 24.4353 14.6451 23.9811 14.3379C23.5268 14.0306 23.1727 13.5938 22.9635 13.0827C22.7544 12.5715 22.6995 12.0091 22.8059 11.4664C22.9123 10.9237 23.1752 10.4251 23.5614 10.0338C23.9475 9.64242 24.4395 9.37586 24.9752 9.26779C25.5108 9.15972 26.0661 9.215 26.5708 9.42663C27.0755 9.63827 27.5068 9.99675 27.8104 10.4568C28.1139 10.9167 28.276 11.4576 28.2761 12.0109C28.2751 12.7524 27.984 13.4633 27.4665 13.9878C26.9491 14.5122 26.2475 14.8075 25.5155 14.8088Z" fill="black"/>
<path d="M120.956 2.54221C120.956 2.87111 121.052 3.19255 121.233 3.46591C121.414 3.73927 121.67 3.95226 121.97 4.07797C122.27 4.20368 122.6 4.23646 122.919 4.17217C123.237 4.10787 123.529 3.94939 123.759 3.71675C123.988 3.48411 124.145 3.18777 124.208 2.86518C124.271 2.54258 124.239 2.20823 124.114 1.90438C123.99 1.60052 123.78 1.34082 123.51 1.15809C123.24 0.975354 122.922 0.877802 122.598 0.877761C122.162 0.878336 121.745 1.05391 121.437 1.36596C121.129 1.67801 120.956 2.10104 120.956 2.54221Z" fill="#00AF87"/>
<path d="M42.9713 2.42669L40.4841 3.29507V6.58612H37.725V8.79258H40.4045V15.8759C40.4045 19.2476 41.5398 20.621 44.3192 20.621C45.0136 20.6232 45.7052 20.5312 46.3755 20.3476L46.4842 20.3176L46.4536 18.033L46.2619 18.1009C45.8454 18.269 45.4044 18.3667 44.9567 18.39C43.6514 18.39 43.1655 17.6427 43.1655 15.6339V8.79258H46.3502V6.58612H43.1655V2.35882L42.9713 2.42669Z" fill="black"/>
<path d="M51.5796 8.82058V6.58613H49.0575V20.3805H51.8175V13.4561C51.8175 10.5519 53.0198 8.95332 55.2027 8.95332C55.5398 8.95648 55.8746 9.00898 56.1968 9.1092L56.3779 9.16087L56.4672 6.43618L55.2809 6.34424C54.4933 6.34888 53.7241 6.58546 53.0669 7.02514C52.4098 7.46483 51.893 8.08864 51.5796 8.82058Z" fill="black"/>
<path d="M71.2838 6.26307C70.3715 6.2562 69.473 6.48868 68.6757 6.93789C67.8784 7.38711 67.2095 8.03776 66.734 8.82653V6.58614H64.2113V26H66.9728V18.4727C67.4496 19.1474 68.0823 19.6935 68.8157 20.0632C69.549 20.4329 70.3606 20.615 71.1794 20.5934C74.6704 20.5934 76.9252 17.6973 76.9252 13.2142C76.9252 9.05614 74.6588 6.26307 71.2838 6.26307ZM70.5158 18.3354C68.3315 18.3354 66.9728 16.4453 66.9728 13.4015C66.9728 10.4703 68.4057 8.57618 70.6221 8.57618C72.757 8.57618 74.0311 10.37 74.0311 13.3759C74.0311 16.4354 72.6842 18.3354 70.5158 18.3354H70.5158Z" fill="black"/>
<path d="M84.9917 6.26306C83.4301 6.236 81.8832 6.57247 80.4702 7.24655L80.3848 7.28683L80.4158 9.67425L80.6308 9.55229C81.7322 8.87323 82.9868 8.49114 84.2753 8.44243C86.2737 8.44243 87.4198 9.60336 87.4198 11.6283V11.7469H85.8417C81.2968 11.7469 78.795 13.4142 78.795 16.4413C78.795 18.8705 80.5993 20.5678 83.1865 20.5678C84.0433 20.6002 84.8948 20.418 85.6654 20.0373C86.4361 19.6567 87.1022 19.0893 87.6047 18.3856V20.3805H90.1022V12.0301C90.1022 8.20345 88.3837 6.26306 84.9917 6.26306ZM87.4198 14.5581C87.4198 16.936 86.0087 18.4693 83.8228 18.4693C83.5305 18.4917 83.2367 18.4521 82.9603 18.353C82.6839 18.254 82.4309 18.0977 82.2175 17.894C82.004 17.6904 81.8348 17.4439 81.7207 17.1704C81.6066 16.8968 81.55 16.6021 81.5546 16.3051C81.5546 14.6323 83.1331 13.7118 85.9999 13.7118H87.4197V14.5581H87.4198Z" fill="#00AF87"/>
<path d="M101.831 0V8.4586C101.36 7.76018 100.723 7.19305 99.9783 6.80939C99.234 6.42572 98.4063 6.23784 97.5716 6.26304C94.1985 6.26304 91.9326 9.07823 91.9326 13.2672C91.9326 17.5816 94.229 20.5934 97.5192 20.5934C98.4323 20.6165 99.3347 20.3895 100.131 19.9362C100.927 19.483 101.588 18.8204 102.044 18.0183V20.3805H104.593V0H101.831H101.831ZM98.2371 18.2808C96.1329 18.2808 94.8256 16.4221 94.8256 13.4291C94.8256 10.4325 96.144 8.496 98.1827 8.496C100.468 8.496 101.831 10.3405 101.831 13.4291C101.831 16.3769 100.42 18.2808 98.2371 18.2808Z" fill="#00AF87"/>
<path d="M116.931 6.58612L113.013 14.5472L109.396 6.58612H106.284L112.958 20.3805L119.814 6.58612H116.931Z" fill="#00AF87"/>
<path d="M123.837 6.58612H121.221V20.3805H123.984V6.58612H123.837Z" fill="#00AF87"/>
<path d="M127.22 10.1227C127.22 12.0645 128.537 13.0857 130.965 14.2871C132.498 15.0507 133.3 15.4991 133.3 16.5751C133.3 17.6756 132.314 18.39 130.791 18.39C129.583 18.3582 128.399 18.0502 127.325 17.4892L127.123 17.3899L127.031 19.82L127.127 19.8598C128.26 20.3117 129.467 20.5428 130.685 20.5409C134.062 20.5409 136.245 18.9107 136.245 16.3868C136.245 14.2812 134.862 13.2156 132.471 12.0836C130.716 11.2521 129.982 10.7624 129.982 9.88019C129.982 9.03839 130.799 8.49599 132.064 8.49599C133.209 8.49715 134.34 8.7588 135.372 9.26166L135.569 9.35702L135.695 6.97462L135.583 6.94018C134.493 6.60654 133.362 6.43284 132.224 6.42435C129.231 6.42438 127.22 7.90989 127.22 10.1227Z" fill="#00AF87"/>
<path d="M144.856 6.26307C140.706 6.26307 138.128 9.02954 138.128 13.4831C138.128 17.9367 140.706 20.7036 144.856 20.7036C149.023 20.7036 151.613 17.9366 151.613 13.4831C151.613 9.02962 149.023 6.26307 144.856 6.26307ZM144.882 18.4171C142.59 18.4171 141.048 16.4221 141.048 13.456C141.048 10.4743 142.59 8.46952 144.882 8.46952C147.213 8.46952 148.719 10.4255 148.719 13.456C148.719 16.4694 147.213 18.4171 144.882 18.4171Z" fill="#00AF87"/>
<path d="M156.707 8.82058V6.58613H154.186V20.3805H156.946V13.4561C156.946 10.5519 158.15 8.95332 160.33 8.95332C160.667 8.95622 161.002 9.00873 161.324 9.1092L161.506 9.16087L161.596 6.43618L160.409 6.34424C159.622 6.349 158.852 6.58561 158.195 7.02527C157.538 7.46493 157.021 8.08868 156.707 8.82058Z" fill="#00AF87"/>
<path d="M61.3887 6.58612H58.7723V20.3805H61.5348V6.58612H61.3887H61.3887Z" fill="black"/>
<path d="M58.506 2.54221C58.5061 2.87123 58.6025 3.19282 58.7831 3.46633C58.9636 3.73984 59.2201 3.95298 59.5202 4.0788C59.8204 4.20463 60.1505 4.23749 60.4691 4.17323C60.7876 4.10897 61.0802 3.95048 61.3098 3.71779C61.5395 3.4851 61.6958 3.18867 61.7592 2.86596C61.8225 2.54326 61.79 2.20878 61.6657 1.9048C61.5414 1.60083 61.3309 1.34101 61.0609 1.1582C60.7908 0.975394 60.4733 0.8778 60.1485 0.877761C59.713 0.878471 59.2956 1.05408 58.9877 1.36608C58.6797 1.67808 58.5065 2.10103 58.506 2.54221Z" fill="black"/>
</g>
<defs>
<clipPath id="clip0">
<rect width="169" height="26" fill="white"/>
</clipPath>
</defs>
</svg>
